<mxfile host="app.diagrams.net" modified="2024-02-16T14:36:18.973Z" agent="Mozilla/5.0 (Windows NT 10.0; Win64; x64) AppleWebKit/537.36 (KHTML, like Gecko) Chrome/121.0.0.0 Safari/537.36" version="23.1.4" etag="dsINUxZrIeexR-PzoDKW" type="github">
  <diagram name="Seite-1" id="Gg3rxoN7_NkNKu6GcW_n">
    <mxGraphModel>
      <root>
        <mxCell id="0" />
        <mxCell id="1" parent="0" />
      </root>
    </mxGraphModel>
  </diagram>
</mxfile>
